<?xml version="1.0" encoding="iso-8859-1"?>
<!-- Uploaded to: SVG Repo, www.svgrepo.com, Generator: SVG Repo Mixer Tools -->
<!DOCTYPE svg PUBLIC "-//W3C//DTD SVG 1.1//EN" "http://www.w3.org/Graphics/SVG/1.1/DTD/svg11.dtd">
<svg height="800px" width="800px" version="1.1" id="Capa_1" xmlns="http://www.w3.org/2000/svg" xmlns:xlink="http://www.w3.org/1999/xlink" 
	 viewBox="0 0 59 59" xml:space="preserve">
<g>
	<path style="fill:#FFFFFF;" d="M16.5,59c-6.065,0-11-4.935-11-11s4.935-11,11-11h11v11C27.5,54.065,22.565,59,16.5,59z M16.5,39
		c-4.962,0-9,4.037-9,9s4.038,9,9,9s9-4.037,9-9v-9H16.5z"/>
	<path style="fill:#FFFFFF;" d="M39.5,39h-13c-0.552,0-1-0.447-1-1s0.448-1,1-1h13c0.552,0,1,0.447,1,1S40.052,39,39.5,39z"/>
	<path style="fill:#FFFFFF;" d="M26.5,39c-0.552,0-1-0.447-1-1v-8c0-0.553,0.448-1,1-1s1,0.447,1,1v8C27.5,38.553,27.052,39,26.5,39
		z"/>
	<circle style="fill:#E7ECED;" cx="46.5" cy="38" r="7"/>
	<path style="fill:#AFB6BB;" d="M46.5,42c-2.206,0-4-1.794-4-4s1.794-4,4-4s4,1.794,4,4S48.706,42,46.5,42z M46.5,36
		c-1.103,0-2,0.897-2,2s0.897,2,2,2s2-0.897,2-2S47.603,36,46.5,36z"/>
	<path style="fill:#FFFFFF;" d="M26.5,31c-1.454,0-2.764-0.747-3.505-1.997L9.713,7.161C8.951,5.876,8.938,4.346,9.672,3.058
		S11.729,1,13.212,1H16.5c0.552,0,1,0.447,1,1s-0.448,1-1,1h-3.288c-0.755,0-1.429,0.392-1.802,1.048
		c-0.374,0.655-0.367,1.435,0.018,2.084l13.282,21.842C25.093,28.62,25.76,29,26.5,29s1.407-0.38,1.785-1.017l12.92-21.851
		c0.385-0.65,0.392-1.43,0.018-2.085C40.85,3.392,40.176,3,39.421,3H36.5c-0.552,0-1-0.447-1-1s0.448-1,1-1h2.921
		c1.483,0,2.806,0.77,3.54,2.058s0.721,2.818-0.035,4.094l-12.92,21.851C29.264,30.253,27.954,31,26.5,31z"/>
	<path style="fill:#AFB6BB;" d="M23.5,2.5C23.5,3.881,20.381,5,19,5s-2.5-1.119-2.5-2.5S17.619,0,19,0S23.5,1.119,23.5,2.5z"/>
	<path style="fill:#AFB6BB;" d="M29.5,2.5C29.5,3.881,32.619,5,34,5s2.5-1.119,2.5-2.5S35.381,0,34,0S29.5,1.119,29.5,2.5z"/>
</g>
</svg>