<?xml version="1.0" ?>

<!DOCTYPE svg  PUBLIC '-//W3C//DTD SVG 1.1//EN'  'http://www.w3.org/Graphics/SVG/1.1/DTD/svg11.dtd'>

<!-- Uploaded to: SVG Repo, www.svgrepo.com, Generator: SVG Repo Mixer Tools -->
<svg fill="#FFFFFF" width="800px" height="800px" viewBox="0 0 512 512" enable-background="new 0 0 512 512" id="Medical_x5F_checkup" version="1.1" xml:space="preserve" xmlns="http://www.w3.org/2000/svg" xmlns:xlink="http://www.w3.org/1999/xlink">

<g>

<g>

<path d="M500.519,423.154V53.34h-70.23v-0.002h-28.913c-2.255-9.218-10.563-16.088-20.466-16.088h-47.82    c-9.902,0-18.211,6.87-20.466,16.088h-28.714v0.002h-70.221v284.91h10V63.34h60.221v38.41h146.379V63.34h60.23v352.744h-48.667    v48.666H223.688v-75h-10v85h235.233L500.519,423.154z M333.089,47.25h47.82c4.316,0,8.064,2.479,9.896,6.088h-67.613    C325.024,49.729,328.772,47.25,333.089,47.25z M420.288,91.75H293.909V63.34h18.09h90h18.289V91.75z M483.446,426.084    l-31.595,31.594v-31.594H483.446z"/>

<rect height="10" width="80" x="316.999" y="72.544"/>

<path d="M419.401,123.82v23.645h-23.645v29h23.645v23.645h29v-23.645h23.645v-29h-23.645V123.82H419.401z M462.046,157.465v9    h-23.645v23.645h-9v-23.645h-23.645v-9h23.645V133.82h9v23.645H462.046z"/>

<rect height="10" width="60.937" x="243.352" y="440.416"/>

<g>

<rect height="10" width="100.258" x="366.788" y="229.889"/>

<rect height="10" width="14.204" x="340.834" y="229.889"/>

<rect height="10" width="158.758" x="308.288" y="247.417"/>

<rect height="10" width="100.258" x="366.788" y="343.23"/>

<rect height="10" width="14.204" x="340.834" y="343.23"/>

<rect height="10" width="158.758" x="308.288" y="360.758"/>

<rect height="10" width="100.258" x="366.788" y="286.56"/>

<rect height="10" width="14.204" x="340.834" y="286.56"/>

<rect height="10" width="158.758" x="308.288" y="304.088"/>

</g>

<g>

<path d="M92.006,353.961v64.744c0,28.082,22.847,50.93,50.929,50.93s50.929-22.848,50.929-50.93v-9.756     c0-15.357,12.494-27.852,27.851-27.852c32.786,0,59.459-26.673,59.459-59.459v-91.75h-10.89v-19.071     c16.392-2.426,29.012-16.586,29.012-33.642c0-18.754-15.258-34.012-34.012-34.012s-34.012,15.258-34.012,34.012     c0,17.056,12.62,31.216,29.012,33.642v19.071h-10.718v91.75c0,15.357-12.494,27.852-27.852,27.852     c-32.785,0-59.458,26.674-59.458,59.459v9.756c0,10.654-8.668,19.321-19.321,19.321s-19.321-8.667-19.321-19.321v-64.744     c46.213-7.631,80.524-47.721,80.524-95.025v-86.759h-11.046V112.77h-18.084c-1.014-10.551-5.329-16.91-11.771-16.91     c-12.081,0-21.91,9.829-21.91,21.91s9.829,21.911,21.91,21.911c2.538,0,7.204-1.112,9.945-8.557     c0.873-2.374,1.482-5.245,1.802-8.354h8.107v49.407H172.53v86.759c0,35.687-29.033,64.72-64.721,64.72     s-64.721-29.033-64.721-64.72V218.75h-10v40.186c0,41.2,33.52,74.72,74.721,74.72s74.721-33.52,74.721-74.72v-76.759h11.607     v76.759c0,43.73-32.722,80.582-76.112,85.721l-4.412,0.521v73.527c0,16.168,13.153,29.321,29.321,29.321     s29.321-13.153,29.321-29.321v-9.756c0-27.271,22.187-49.459,49.458-49.459c20.871,0,37.852-16.979,37.852-37.852v-81.75h11.607     v81.75c0,27.272-22.188,49.459-49.459,49.459c-20.871,0-37.851,16.98-37.851,37.852v9.756c0,22.568-18.36,40.93-40.929,40.93     s-40.929-18.361-40.929-40.93v-73.527l-4.412-0.521c-43.391-5.139-76.112-41.99-76.112-85.721v-76.759h11.607v24.011h10v-34.011     H32.131V122.77h8.083c1.014,10.551,5.329,16.911,11.771,16.911c12.081,0,21.91-9.829,21.91-21.911s-9.829-21.91-21.91-21.91     c-2.538,0-7.204,1.112-9.945,8.557c-0.874,2.374-1.482,5.244-1.802,8.353H22.131v59.407H11.481v86.759     C11.481,306.24,45.793,346.33,92.006,353.961z M241.271,177.176c0-13.24,10.771-24.012,24.012-24.012     s24.012,10.771,24.012,24.012s-10.771,24.012-24.012,24.012S241.271,190.417,241.271,177.176z M162.79,129.672     c-6.36-0.236-11.463-5.485-11.463-11.902s5.103-11.666,11.463-11.902c0.949,1.101,2.451,5.27,2.451,11.902     C165.241,124.402,163.739,128.571,162.79,129.672z M52.432,105.868c6.36,0.236,11.463,5.484,11.463,11.902     s-5.103,11.666-11.463,11.902c-0.949-1.101-2.451-5.27-2.451-11.902C49.98,111.138,51.482,106.968,52.432,105.868z"/>

<path d="M282.014,177.176c0-9.225-7.505-16.73-16.73-16.73s-16.73,7.505-16.73,16.73s7.505,16.73,16.73,16.73     S282.014,186.401,282.014,177.176z M258.553,177.176c0-3.711,3.02-6.73,6.73-6.73s6.73,3.019,6.73,6.73s-3.02,6.73-6.73,6.73     S258.553,180.888,258.553,177.176z"/>

</g>

</g>

</g>

</svg>